<?xml version="1.0" standalone="no"?>
<!DOCTYPE svg PUBLIC "-//W3C//DTD SVG 1.1//EN" "http://www.w3.org/Graphics/SVG/1.1/DTD/svg11.dtd" >
<svg xmlns="http://www.w3.org/2000/svg" xmlns:xlink="http://www.w3.org/1999/xlink" version="1.1">
<metadata></metadata>
<defs>
<font id="chogokuboso_gothicregular" horiz-adv-x="1314" vert-adv-y="2048" >
<font-face units-per-em="2048" ascent="1760" descent="-288" />
<missing-glyph horiz-adv-x="524" />
<glyph horiz-adv-x="0" vert-adv-y="0" />
<glyph horiz-adv-x="682" />
<glyph unicode=" "  horiz-adv-x="524" />
<glyph unicode="&#x09;" horiz-adv-x="524" />
<glyph unicode="&#xa0;" horiz-adv-x="524" />
<glyph unicode="!" horiz-adv-x="536" d="M258 10v206h20v-206h-20zM258 400v1086h20v-1086h-20z" />
<glyph unicode="&#x22;" horiz-adv-x="680" d="M166 1136v430h20v-430h-20zM494 1136v430h20v-430h-20z" />
<glyph unicode="#" horiz-adv-x="1362" d="M124 450v22h270l104 592h-264v22h268l70 400h22l-72 -400h430l70 400h22l-70 -400h264v-22h-268l-106 -592h264v-22h-266l-78 -440h-22l78 440h-428l-78 -440h-22l76 440h-264zM414 472h430l104 592h-428z" />
<glyph unicode="$" horiz-adv-x="1080" d="M134 116v22q170 -70 380 -76v698q-380 68 -380 366q0 148 100 236t280 92v206h20v-206q188 -2 370 -56v-20q-172 54 -370 56v-658q234 -42 322 -148t88 -238q0 -158 -107 -252t-303 -98v-204h-20v204q-204 6 -380 76zM156 1126q0 -278 358 -346v654q-168 -4 -263 -87 t-95 -221zM534 62q184 4 287 92t103 236q0 294 -390 366v-694z" />
<glyph unicode="%" horiz-adv-x="1582" d="M104 1136q0 174 81 272t227 98t227 -98t81 -272t-81 -271t-227 -97t-226 96q-82 98 -82 272zM126 1136q0 -162 74 -254q76 -94 211 -94t211 93t76 255t-76 255t-211 93t-210 -93t-75 -255zM354 10l850 1476h24l-852 -1476h-22zM862 358q0 174 81 272t226 98t226 -98 t81 -272t-81 -271t-226 -97t-225 96q-82 98 -82 272zM882 358q0 -162 76 -254q76 -94 211 -94t211 93t76 255t-76 255t-211 93t-211 -93t-76 -255z" />
<glyph unicode="&#x26;" horiz-adv-x="1396" d="M134 348q0 114 92 226t302 254q4 4 13 10t23 12l-36 42q-120 134 -164 214t-44 164q0 104 86 170t220 66q146 0 227 -63t81 -173q0 -106 -68 -194t-272 -228l494 -544q106 176 150 420h22q-48 -264 -156 -440l248 -274h-30l-232 258q-190 -278 -514 -278q-212 0 -327 93 t-115 265zM156 348q0 -160 110 -249t310 -89q316 0 498 272l-494 556q-14 -10 -25 -18t-15 -10q-202 -134 -293 -243t-91 -219zM340 1270q0 -76 40 -152t160 -208l42 -48q202 140 267 224t65 184q0 104 -75 159t-213 55q-128 0 -207 -58t-79 -156z" />
<glyph unicode="'" horiz-adv-x="372" d="M176 1136v430h20v-430h-20z" />
<glyph unicode="(" horiz-adv-x="690" d="M166 676q0 542 364 890h30q-374 -336 -374 -891t374 -891h-30q-364 350 -364 892z" />
<glyph unicode=")" horiz-adv-x="690" d="M130 -216q374 336 374 891t-374 891h30q364 -348 364 -890t-364 -892h-30z" />
<glyph unicode="*" horiz-adv-x="996" d="M128 946l348 200l-348 202l12 18l348 -202v402h20v-402l348 202l10 -18l-348 -202l348 -200l-10 -18l-348 202v-404h-20v404l-348 -202z" />
<glyph unicode="+" horiz-adv-x="1500" d="M186 584v20h554v574h20v-574h554v-20h-554v-574h-20v574h-554z" />
<glyph unicode="," horiz-adv-x="500" d="M150 -216l158 432h22l-158 -432h-22z" />
<glyph unicode="-" horiz-adv-x="926" d="M186 562v22h554v-22h-554z" />
<glyph unicode="." horiz-adv-x="454" d="M216 10v206h22v-206h-22z" />
<glyph unicode="/" horiz-adv-x="944" d="M100 -72l690 1558h24l-690 -1558h-24z" />
<glyph unicode="0" horiz-adv-x="1228" d="M112 748q0 180 32 319t80 221t116 131t134 68t140 19t141 -19t134 -68t115 -131t80 -221t32 -319t-32 -320t-80 -222t-115 -131t-133 -67q-68 -18 -142 -18t-140 18t-134 67t-116 131t-80 222t-32 320zM134 748q0 -738 481 -738t481 737t-481 737t-481 -736z" />
<glyph unicode="1" horiz-adv-x="1228" d="M236 1096v26l444 364h26v-1476h-20v1438h-18z" />
<glyph unicode="2" horiz-adv-x="1228" d="M174 10v26q472 416 647 649t175 421q0 180 -104 279t-288 99q-224 0 -400 -110v22q184 110 400 110q194 0 303 -106t109 -294q0 -192 -174 -424t-626 -632v-20h818v-20h-860z" />
<glyph unicode="3" horiz-adv-x="1228" d="M184 98v24q156 -112 380 -112q480 0 480 420q0 378 -584 378h-72v22h72q256 0 405 94t149 264q0 142 -107 219t-293 77q-238 0 -400 -110v22q176 110 400 110q196 0 308 -85t112 -233q0 -134 -91 -225t-265 -131v-20q388 -68 388 -382q0 -218 -127 -329t-375 -111 q-214 0 -380 108z" />
<glyph unicode="4" horiz-adv-x="1228" d="M40 400v26l774 1060h26v-1066h286v-20h-286v-390h-22v390h-778zM72 420h746v1016h-20l-726 -998v-18z" />
<glyph unicode="5" horiz-adv-x="1228" d="M204 78v22q158 -90 348 -90q230 0 351 118t121 344q0 196 -116 302t-334 106q-184 0 -320 -102h-28l52 708h706v-22h-688l-48 -654h16q140 92 310 92q224 0 347 -112t123 -318q0 -234 -126 -358t-366 -124q-190 0 -348 88z" />
<glyph unicode="6" horiz-adv-x="1228" d="M132 656q0 430 147 640t407 210q172 0 318 -58v-22q-140 58 -318 58q-252 0 -392 -202t-142 -610l20 -10q52 148 182 230t302 82q206 0 333 -133t127 -349q0 -238 -129 -370t-353 -132q-238 0 -370 163t-132 503zM168 532q0 -40 4 -84t30 -129t72 -148t140 -112t220 -49 q220 0 341 126t121 356q0 206 -122 333t-318 127q-212 0 -350 -121t-138 -299z" />
<glyph unicode="7" horiz-adv-x="1228" d="M164 1464v22h902v-30q-368 -610 -632 -1446h-20q254 814 624 1438v16h-874z" />
<glyph unicode="8" horiz-adv-x="1228" d="M112 390q0 306 408 398v20q-168 46 -258 142t-90 228q0 148 121 238t322 90t322 -90t121 -238q0 -132 -91 -228t-259 -142v-20q408 -92 408 -398q0 -186 -135 -293t-367 -107t-367 107t-135 293zM134 390q0 -174 130 -277t351 -103t351 103t130 277q0 324 -482 398 q-480 -74 -480 -398zM192 1178q0 -142 114 -241t308 -127q194 28 308 127t114 241q0 140 -116 223t-306 83t-306 -83t-116 -223z" />
<glyph unicode="9" horiz-adv-x="1228" d="M122 1024q0 222 136 352t346 130q240 0 371 -160t131 -486q0 -870 -554 -870q-174 0 -338 58v24q154 -62 338 -62q526 0 534 828h-22q-50 -148 -178 -232t-302 -84q-210 0 -336 135t-126 367zM144 1024q0 -220 120 -351t320 -131q212 0 349 124t137 318q0 20 -2 45 t-11 77t-26 98t-52 99t-83 92t-124 64t-168 25q-204 0 -332 -124t-128 -336z" />
<glyph unicode=":" horiz-adv-x="618" d="M298 10v206h22v-206h-22zM298 808v206h22v-206h-22z" />
<glyph unicode=";" horiz-adv-x="664" d="M190 -216l158 432h24l-158 -432h-24zM320 808v206h20v-206h-20z" />
<glyph unicode="&#x3c;" horiz-adv-x="1336" d="M156 574v40l962 496v-22l-946 -486v-16l946 -486v-22z" />
<glyph unicode="=" horiz-adv-x="1540" d="M206 358v22h1128v-22h-1128zM206 808v22h1128v-22h-1128z" />
<glyph unicode="&#x3e;" horiz-adv-x="1336" d="M216 78v22l948 486v16l-948 486v22l964 -496v-40z" />
<glyph unicode="?" horiz-adv-x="1274" d="M196 1414v22q210 70 440 70q234 0 358 -79t124 -219q0 -98 -45 -176t-93 -116t-138 -94q-76 -50 -113 -78t-88 -81t-73 -120t-22 -143h-22q0 80 24 150t78 127t92 85t114 78q64 40 99 67t80 73t66 102t21 126q0 134 -122 205t-340 71q-238 0 -440 -70zM524 10v206h22 v-206h-22z" />
<glyph unicode="@" horiz-adv-x="1684" d="M104 532q0 326 206 532t532 206q332 0 535 -203t203 -535q0 -196 -110 -311t-286 -115q-102 0 -146 56q-32 42 -26 140h-18q-122 -196 -322 -196q-128 0 -200 96q-100 132 -36 348q58 206 173 322t257 116q130 0 200 -92q34 -46 50 -140h18l58 200h20l-160 -558 q-42 -160 2 -224q40 -46 130 -46q170 0 272 110t102 294q0 320 -197 519t-519 199q-316 0 -516 -201t-200 -516t200 -516t516 -201q238 0 410 114l10 -16q-180 -120 -420 -120q-326 0 -532 206t-206 532zM456 542q-56 -206 34 -326q64 -88 182 -88q148 0 244 102t162 326 q58 208 -30 326q-58 84 -182 84q-134 0 -243 -112t-167 -312z" />
<glyph unicode="A" d="M88 10l544 1476h50l546 -1476h-24l-188 512h-716l-190 -512h-22zM308 542h700l-342 928h-16z" />
<glyph unicode="B" horiz-adv-x="1182" d="M196 10v1476h256q544 0 544 -328q0 -250 -306 -324v-20q388 -64 388 -374q0 -430 -604 -430h-278zM218 30h256q296 0 439 100t143 310q0 368 -582 368h-256v-778zM218 830h256q238 0 369 84t131 244q0 46 -8 83t-42 81t-88 74t-153 49t-231 19h-234v-634z" />
<glyph unicode="C" horiz-adv-x="1212" d="M104 748q0 358 151 558t405 200q192 0 356 -68v-24q-162 70 -356 70q-252 0 -393 -196t-141 -540q0 -340 148 -539t404 -199q186 0 348 70v-22q-164 -68 -348 -68q-258 0 -416 200t-158 558z" />
<glyph unicode="D" horiz-adv-x="1304" d="M196 10v1476h236q380 0 574 -183t194 -535q0 -366 -198 -562t-570 -196h-236zM218 30h214q366 0 557 189t191 549q0 696 -748 696h-214v-1434z" />
<glyph unicode="E" horiz-adv-x="1172" d="M196 10v1476h800v-22h-778v-634h736v-22h-736v-778h778v-20h-800z" />
<glyph unicode="F" horiz-adv-x="1140" d="M196 10v1476h780v-22h-758v-654h716v-22h-716v-778h-22z" />
<glyph unicode="G" horiz-adv-x="1376" d="M104 748q0 348 183 553t483 205q188 0 358 -60v-20q-162 58 -358 58q-292 0 -468 -200t-176 -536t169 -537t455 -201q220 0 420 80v718h-574v22h594v-756q-196 -84 -440 -84q-288 0 -467 202t-179 556z" />
<glyph unicode="H" d="M196 10v1476h22v-656h880v656h20v-1476h-20v798h-880v-798h-22z" />
<glyph unicode="I" horiz-adv-x="578" d="M278 10v1476h22v-1476h-22z" />
<glyph unicode="J" horiz-adv-x="1038" d="M104 46v24q152 -60 338 -60q206 0 303 117t97 365v994h20v-994q0 -260 -104 -381t-316 -121q-182 0 -338 56z" />
<glyph unicode="K" horiz-adv-x="1172" d="M196 10v1476h22v-690h18l774 690h32l-798 -708l818 -768h-30l-796 750h-18v-750h-22z" />
<glyph unicode="L" horiz-adv-x="1162" d="M196 10v1476h22v-1456h798v-20h-820z" />
<glyph unicode="M" horiz-adv-x="1560" d="M116 10l192 1476h52l410 -1456h20l410 1456h54l190 -1476h-20l-190 1452h-20l-408 -1452h-50l-410 1452h-20l-188 -1452h-22z" />
<glyph unicode="N" horiz-adv-x="1376" d="M196 10v1476h50l892 -1452h20v1452h22v-1476h-50l-892 1452h-20v-1452h-22z" />
<glyph unicode="O" horiz-adv-x="1418" d="M104 747q0 363 158 561t447 198t447 -198t158 -561t-158 -560t-447 -197t-445 196q-160 198 -160 561zM126 748q0 -356 148 -546q152 -192 435 -192t433 191t150 547t-150 546t-433 190t-433 -190t-150 -546z" />
<glyph unicode="P" horiz-adv-x="1172" d="M196 10v1476h298q314 0 449 -92t135 -298q0 -222 -138 -326t-426 -104h-296v-656h-22zM218 686h296q280 0 411 99t131 311q0 118 -43 195t-170 125t-349 48h-276v-778z" />
<glyph unicode="Q" horiz-adv-x="1488" d="M104 747q0 363 158 561t447 198t447 -198t158 -560q0 -298 -106 -484t-312 -248v-20q402 -54 570 -294h-26q-218 288 -732 288q-288 0 -446 197t-158 560zM126 748q0 -356 148 -546q152 -192 435 -192t433 191t150 547t-150 546t-433 190t-433 -190t-150 -546z" />
<glyph unicode="R" horiz-adv-x="1212" d="M196 10v1476h278q88 0 159 -7t154 -27t139 -54t94 -94t38 -146q0 -176 -89 -273t-285 -131v-18q68 -28 111 -90t111 -220l186 -416h-24l-180 408q-46 100 -73 150t-56 91t-71 54t-85 19t-129 6h-256v-728h-22zM218 758h256q296 0 429 95t133 305q0 152 -134 229t-428 77 h-256v-706z" />
<glyph unicode="S" horiz-adv-x="1090" d="M146 1198q0 150 100 229t288 79q204 0 380 -88v-24q-172 90 -380 90q-368 0 -368 -286q0 -270 370 -388q216 -68 312 -173t96 -269q0 -184 -105 -281t-305 -97q-218 0 -378 108v26q154 -114 378 -114q190 0 290 92t100 266q0 156 -93 254t-299 166q-386 124 -386 410z " />
<glyph unicode="T" horiz-adv-x="1294" d="M146 1464v22h1004v-22h-492v-1454h-22v1454h-490z" />
<glyph unicode="U" d="M176 492v994h20v-994q0 -236 118 -359t343 -123t343 123t118 359v994h20v-994q0 -246 -126 -374t-355 -128t-355 128t-126 374z" />
<glyph unicode="V" d="M88 1486h24l538 -1462h16l536 1462h26l-546 -1476h-50z" />
<glyph unicode="W" horiz-adv-x="1786" d="M116 1486h24l334 -1462h20l374 1462h50l374 -1462h20l334 1462h24l-342 -1476h-50l-376 1460h-20l-374 -1460h-50z" />
<glyph unicode="X" horiz-adv-x="1274" d="M142 10l482 746l-470 730h24l450 -704h16l452 704h24l-470 -730l480 -746h-24l-462 718h-16l-460 -718h-26z" />
<glyph unicode="Y" horiz-adv-x="1274" d="M92 1486h24l512 -784h16l512 784h26l-534 -814v-662h-22v662z" />
<glyph unicode="Z" horiz-adv-x="1232" d="M176 10v28l850 1410v16h-850v22h882v-30l-850 -1408v-18h850v-20h-882z" />
<glyph unicode="[" horiz-adv-x="906" d="M258 -216v1782h450v-20h-430v-1740h430v-22h-450z" />
<glyph unicode="\" horiz-adv-x="944" d="M130 1486h24l690 -1558h-22z" />
<glyph unicode="]" horiz-adv-x="906" d="M196 -194h430v1740h-430v20h452v-1782h-452v22z" />
<glyph unicode="^" horiz-adv-x="1212" d="M110 584l472 902h48l472 -902h-24l-464 892h-16l-462 -892h-26z" />
<glyph unicode="_" horiz-adv-x="1098" d="M6 -194h1086v-22h-1086v22z" />
<glyph unicode="`" horiz-adv-x="444" d="M62 1648h22l248 -430h-22z" />
<glyph unicode="a" horiz-adv-x="1048" d="M124 286q0 54 14 101t53 95t101 83t170 58t246 23h154v112q0 162 -72 229t-246 67q-206 0 -368 -70v24q162 68 368 68q186 0 262 -73t76 -245v-748h-20v238h-20q-58 -124 -166 -191t-254 -67q-140 0 -219 79t-79 217zM146 286q0 -128 73 -202t203 -74q190 0 315 119 t125 301v194h-154q-562 0 -562 -338z" />
<glyph unicode="b" horiz-adv-x="1140" d="M186 10v1516h22v-662h20q54 96 156 154t222 58q204 0 312 -141t108 -403q0 -260 -109 -401t-311 -141q-120 0 -222 57t-156 153h-20v-190h-22zM208 338q0 -132 119 -230t279 -98q192 0 296 135t104 387q0 256 -103 389t-297 133q-160 0 -279 -98t-119 -228v-390z" />
<glyph unicode="c" horiz-adv-x="1008" d="M104 532q0 268 118 406t334 138q142 0 276 -48v-24q-126 50 -276 50q-126 0 -216 -46t-134 -128t-62 -165t-18 -183q0 -522 450 -522q146 0 266 50v-24q-128 -46 -266 -46q-230 0 -351 136t-121 406z" />
<glyph unicode="d" horiz-adv-x="1140" d="M114 532q0 262 109 403t311 141q122 0 223 -58t157 -154h20v662h20v-1516h-20v190h-20q-56 -96 -157 -153t-223 -57q-200 0 -310 141t-110 401zM136 532q0 -252 103 -387t295 -135q160 0 280 98t120 230v390q0 130 -120 228t-280 98q-194 0 -296 -133t-102 -389z" />
<glyph unicode="e" horiz-adv-x="1058" d="M104 532q0 130 28 230t70 158t102 93t118 49t122 14q400 0 400 -524v-10h-818q0 -532 450 -532q170 0 306 60v-24q-144 -56 -306 -56q-472 0 -472 542zM126 564h798q-8 490 -380 490q-402 0 -418 -490z" />
<glyph unicode="f" horiz-adv-x="1038" d="M134 994v20h308v194q0 162 63 230t213 68q88 0 154 -28v-22q-64 28 -154 28q-140 0 -197 -61t-57 -215v-194h388v-20h-388v-984h-22v984h-308z" />
<glyph unicode="g" horiz-adv-x="1018" d="M84 -354q156 -86 378 -86q202 0 321 83t119 223q0 52 -13 92t-49 83t-116 67t-200 24q-218 0 -314 45t-96 141q0 78 82 146q-112 100 -112 252q0 160 105 260t273 100q276 0 380 -198h20v176h20v-338q0 -156 -107 -247t-291 -91q-160 0 -272 74q-76 -60 -76 -134 q0 -36 14 -61t53 -52t121 -39t200 -12q400 0 400 -288q0 -144 -125 -236t-337 -92q-206 0 -378 86v22zM104 717q0 -149 101 -233t279 -84q174 0 276 85t102 231q0 154 -110 246t-290 92q-156 0 -257 -94t-101 -243z" />
<glyph unicode="h" horiz-adv-x="1110" d="M186 10v1516h22v-692h20q60 100 166 171t212 71q180 0 259 -100t79 -342v-624h-20v624q0 246 -77 333t-241 87q-134 0 -266 -115t-132 -223v-706h-22z" />
<glyph unicode="i" horiz-adv-x="578" d="M278 10v1044h22v-1044h-22zM278 1342v184h22v-184h-22z" />
<glyph unicode="j" horiz-adv-x="690" d="M2 -420q236 0 312 69t76 289v1116h22v-1116q0 -230 -82 -304t-328 -74v20zM390 1342v184h22v-184h-22z" />
<glyph unicode="k" horiz-adv-x="1058" d="M186 10v1516h22v-954h18l652 482h36l-682 -502l692 -542h-32l-666 524h-18v-524h-22z" />
<glyph unicode="l" horiz-adv-x="578" d="M278 10v1516h22v-1516h-22z" />
<glyph unicode="m" horiz-adv-x="1592" d="M176 10v1044h20v-188h20q50 96 131 153t167 57q234 0 282 -242h18q46 106 133 174t181 68q152 0 225 -98t73 -302v-666h-22v666q0 196 -65 287t-211 91q-118 0 -217 -105t-99 -233v-706h-22v666q0 200 -66 289t-210 89q-118 0 -218 -105t-100 -233v-706h-20z" />
<glyph unicode="n" horiz-adv-x="1100" d="M176 10v1044h20v-214h20q60 100 167 168t213 68q180 0 259 -100t79 -342v-624h-20v624q0 246 -77 333t-241 87q-140 0 -270 -111t-130 -227v-706h-20z" />
<glyph unicode="o" horiz-adv-x="1110" d="M104 532q0 260 118 402t333 142t333 -142t118 -402t-120 -402q-116 -140 -331 -140t-333 141t-118 401zM126 532q0 -252 110 -384q112 -138 319 -138t318 135t111 387t-111 387t-318 135t-318 -135t-111 -387z" />
<glyph unicode="p" horiz-adv-x="1130" d="M176 -440v1494h20v-192h20q54 100 153 157t227 57q202 0 311 -141t109 -403q0 -260 -110 -401t-310 -141q-128 0 -227 56t-153 156h-20v-642h-20zM196 358q0 -144 114 -246t286 -102q192 0 296 135t104 387q0 256 -103 389t-297 133q-172 0 -286 -101t-114 -247v-348z " />
<glyph unicode="q" horiz-adv-x="1130" d="M114 532q0 262 109 403t311 141q128 0 227 -57t153 -157h20v192h20v-1494h-20v642h-20q-54 -100 -153 -156t-227 -56q-200 0 -310 141t-110 401zM136 532q0 -252 103 -387t295 -135q172 0 286 102t114 246v348q0 146 -114 247t-286 101q-194 0 -296 -133t-102 -389z" />
<glyph unicode="r" horiz-adv-x="864" d="M176 10v1044h20v-300h20q62 144 187 222t295 78h32v-20h-32q-220 0 -361 -135t-141 -347v-542h-20z" />
<glyph unicode="s" horiz-adv-x="988" d="M146 68v22q154 -80 338 -80q156 0 247 69t91 187q0 96 -70 167t-270 109q-184 38 -260 101t-76 177q0 116 92 186t246 70q172 0 328 -58v-26q-160 62 -328 62q-148 0 -233 -62t-85 -172q0 -96 69 -158t251 -98q186 -38 271 -109t85 -189q0 -128 -96 -202t-262 -74 q-180 0 -338 78z" />
<glyph unicode="t" horiz-adv-x="998" d="M124 994v20h256v390h22v-390h420v-20h-420v-708q0 -168 53 -222t193 -54q86 0 154 30v-24q-68 -26 -154 -26q-154 0 -211 62t-57 234v708h-256z" />
<glyph unicode="u" horiz-adv-x="1090" d="M166 390v664h20v-664q0 -218 78 -299t230 -81q138 0 268 112t130 226v706h22v-1044h-22v216h-20q-58 -102 -165 -169t-213 -67q-170 0 -249 92t-79 308z" />
<glyph unicode="v" horiz-adv-x="1090" d="M98 1054h26l412 -1032h16l414 1032h26l-422 -1044h-50z" />
<glyph unicode="w" horiz-adv-x="1602" d="M118 1054h22l312 -1026h20l306 1026h46l304 -1026h20l314 1026h22l-322 -1044h-46l-306 1026h-20l-304 -1026h-46z" />
<glyph unicode="x" horiz-adv-x="1070" d="M134 10l388 528l-378 516h26l356 -490h16l356 490h26l-376 -516l386 -528h-24l-368 504h-16l-366 -504h-26z" />
<glyph unicode="y" horiz-adv-x="1140" d="M104 -440q156 0 267 96t213 344l-454 1054h24l434 -1010h16l414 1010h24l-434 -1048q-104 -264 -223 -366t-281 -102v22z" />
<glyph unicode="z" horiz-adv-x="1070" d="M176 10v26l684 980v18h-684v20h718v-26l-684 -978v-20h684v-20h-718z" />
<glyph unicode="{" horiz-adv-x="1008" d="M146 666v20h92q82 0 128 77t46 199v328q0 148 55 212t181 64h154v-20h-154q-108 0 -162 -54t-54 -202v-328q0 -212 -122 -278v-16q122 -66 122 -278v-328q0 -148 54 -202t162 -54h154v-22h-154q-126 0 -181 65t-55 213v328q0 122 -46 199t-128 77h-92z" />
<glyph unicode="|" horiz-adv-x="618" d="M298 -440v2088h22v-2088h-22z" />
<glyph unicode="}" horiz-adv-x="1008" d="M206 -194h154q106 0 161 54t55 202v328q0 212 122 278v16q-122 66 -122 278v328q0 148 -55 202t-161 54h-154v20h154q126 0 181 -64t55 -212v-328q0 -122 46 -199t128 -77h92v-20h-92q-82 0 -128 -77t-46 -199v-328q0 -148 -55 -213t-181 -65h-154v22z" />
<glyph unicode="~" horiz-adv-x="1396" d="M138 578q116 170 306 170q138 0 260 -128q120 -118 248 -118q182 0 288 160l18 -12q-116 -168 -306 -168q-136 0 -260 126q-118 118 -248 118q-180 0 -286 -160z" />
<glyph unicode="&#xa1;" horiz-adv-x="536" d="M258 -440v1106h20v-1106h-20zM258 850v204h20v-204h-20z" />
<glyph unicode="&#xa2;" horiz-adv-x="1018" d="M104 532q0 254 107 390t317 152v330h22v-328h26q142 0 276 -48v-24q-126 50 -276 50h-26v-1044h46q148 0 266 50v-24q-126 -46 -266 -46h-46v-348h-22v352q-424 40 -424 538zM126 532q0 -478 402 -520v1040q-402 -30 -402 -520z" />
<glyph unicode="&#xa3;" horiz-adv-x="1254" d="M176 10v20q92 8 169 111t77 269v328h-206v20h206v368q0 184 105 282t305 98q116 0 214 -44v-22q-94 44 -214 44q-190 0 -290 -92t-100 -266v-368h512v-20h-512v-328q0 -120 -44 -215t-122 -143v-22h802v-20h-902z" />
<glyph unicode="&#xa4;" horiz-adv-x="1344" d="M150 242l204 202q-122 134 -122 304t122 302l-204 204l16 16l202 -204q134 122 304 122t302 -122l204 204l16 -16l-204 -204q122 -132 122 -302t-122 -304l204 -202l-16 -18l-204 206q-132 -124 -302 -124t-304 124l-202 -206zM252 748q0 -174 122 -298 q126 -122 298 -122t296 123t124 297t-124 297t-296 123t-296 -123t-124 -297z" />
<glyph unicode="&#xa5;" horiz-adv-x="1294" d="M102 1486h26l512 -784h16l512 784h24l-524 -800h440v-20h-450v-276h450v-22h-450v-358h-22v358h-450v22h450v276h-450v20h440z" />
<glyph unicode="&#xa6;" horiz-adv-x="618" d="M298 -276v716h22v-716h-22zM298 768v718h22v-718h-22z" />
<glyph unicode="&#xa7;" horiz-adv-x="1028" d="M146 634q0 98 53 174t167 126q-200 90 -200 274q0 136 95 217t253 81q164 0 318 -74v-24q-150 76 -318 76q-150 0 -239 -75t-89 -201q0 -110 70 -183t260 -113q194 -46 280 -125t86 -213q0 -96 -53 -173t-167 -127q200 -90 200 -274q0 -134 -95 -216t-253 -82 q-164 0 -318 74v24q150 -76 318 -76q150 0 239 76t89 200q0 110 -70 183t-260 113q-194 44 -280 124t-86 214zM166 634q0 -126 83 -202t267 -114q30 -6 110 -32q114 34 175 109t61 179q0 126 -83 202t-267 114q-30 6 -110 32q-114 -34 -175 -108t-61 -180z" />
<glyph unicode="&#xa8;" horiz-adv-x="824" d="M196 1260v226h22v-226h-22zM606 1260v226h20v-226h-20z" />
<glyph unicode="&#xa9;" horiz-adv-x="1684" d="M104 747q0 305 216 522t521 217t522 -217t217 -522t-218 -519q-216 -218 -521 -218t-521 216t-216 521zM126 747q0 -297 208 -507q210 -210 507 -210t507 210t210 507t-210 507t-507 210t-506 -210t-209 -507zM504 747q0 207 92 321t248 114q122 0 218 -34v-26 q-96 38 -218 38q-150 0 -235 -109t-85 -303q0 -190 89 -302t243 -112q116 0 212 40v-26q-94 -34 -212 -34q-158 0 -255 113t-97 320z" />
<glyph unicode="&#xaa;" horiz-adv-x="1274" d="M206 468v22h862v-22h-862zM304 876q0 134 116 212t350 78h118v88q0 128 -56 179t-194 51q-160 0 -292 -54v22q138 54 292 54q148 0 210 -58t62 -194v-596h-22v178h-20q-48 -92 -132 -144t-196 -52q-110 0 -173 63t-63 173zM326 876q0 -100 57 -157t157 -57q154 0 251 95 t97 243v144h-118q-74 0 -139 -9t-140 -34t-120 -83t-45 -142z" />
<glyph unicode="&#xab;" horiz-adv-x="1458" d="M156 578v32l512 454v-30l-496 -434v-12l496 -434v-30zM728 578v32l514 454v-30l-496 -434v-12l496 -434v-30z" />
<glyph unicode="&#xac;" d="M146 808v22h962v-492h-20v470h-942z" />
<glyph unicode="&#xad;" horiz-adv-x="926" d="M186 584v20h554v-20h-554z" />
<glyph unicode="&#xae;" horiz-adv-x="1684" d="M104 747q0 305 216 522t521 217t522 -217t217 -522t-218 -519q-216 -218 -521 -218t-521 216t-216 521zM126 747q0 -297 208 -507q210 -210 507 -210t507 210t210 507t-210 507t-507 210t-506 -210t-209 -507zM570 324v848h184q394 0 394 -212q0 -176 -248 -210v-18 q40 -12 68 -45t78 -127l124 -236h-26l-116 224q-68 136 -107 163t-167 27h-164v-414h-20zM590 758h164q198 0 285 48t87 154q0 98 -91 144t-281 46h-164v-392z" />
<glyph unicode="&#xaf;" horiz-adv-x="926" d="M146 1382v22h634v-22h-634z" />
<glyph unicode="&#xb0;" horiz-adv-x="782" d="M114 1229q0 115 81 196t196 81t196 -81t81 -196t-81 -196t-196 -81t-195 82q-82 80 -82 195zM136 1229q0 -107 75 -181t180 -74t180 74t75 181t-75 181t-180 74t-179 -74q-76 -74 -76 -181z" />
<glyph unicode="&#xb1;" horiz-adv-x="1540" d="M206 -50h1128v-22h-1128v22zM206 726v22h554v574h20v-574h554v-22h-554v-572h-20v572h-554z" />
<glyph unicode="&#xb2;" horiz-adv-x="758" d="M118 608v26q282 248 380 380t98 248q0 102 -58 158t-166 56q-134 0 -236 -64v24q108 62 236 62q116 0 180 -63t64 -173q0 -120 -96 -251t-360 -365v-18h466v-20h-508z" />
<glyph unicode="&#xb3;" horiz-adv-x="758" d="M124 658v20q90 -62 224 -62q276 0 276 240q0 224 -338 224h-38v20h38q148 0 234 57t86 153q0 80 -60 123t-168 43q-140 0 -234 -64v24q104 62 234 62q116 0 182 -51t66 -137q0 -148 -186 -208v-18q206 -54 206 -228q0 -130 -76 -195t-222 -65q-124 0 -224 62z" />
<glyph unicode="&#xb4;" horiz-adv-x="434" d="M114 1218l232 308h26l-230 -308h-28z" />
<glyph unicode="&#xb5;" horiz-adv-x="1100" d="M176 -440v1494h20v-664q0 -206 72 -293t236 -87q166 0 282 135t116 327v582h22v-1044h-22v262h-20q-54 -130 -155 -206t-223 -76q-222 0 -308 182v-612h-20z" />
<glyph unicode="&#xb6;" horiz-adv-x="1192" d="M94 1024q0 190 135 326t327 136h440v-1762h-22v1740h-388v-1740h-20v838q-202 0 -337 136t-135 326z" />
<glyph unicode="&#xb7;" horiz-adv-x="454" d="M216 482v224h22v-224h-22z" />
<glyph unicode="&#xb8;" horiz-adv-x="844" d="M124 -374q92 -46 216 -46q306 0 306 204q0 118 -84 206h28q78 -96 78 -206q0 -36 -11 -71t-43 -72t-102 -59t-172 -22q-114 0 -216 42v24z" />
<glyph unicode="&#xb9;" horiz-adv-x="758" d="M136 1240v30l248 216h28v-878h-22v842h-16z" />
<glyph unicode="&#xba;" horiz-adv-x="1274" d="M206 468v22h862v-22h-862zM278 1073q0 207 94 321q92 112 265 112t266 -113t93 -320t-93 -320t-266 -113t-266 113t-93 320zM300 1073q0 -199 88 -303q88 -108 249 -108t249 106t88 305t-88 305t-249 106t-249 -106t-88 -305z" />
<glyph unicode="&#xbb;" horiz-adv-x="1458" d="M216 124v30l496 434v12l-496 434v30l514 -454v-32zM790 124v30l496 434v12l-496 434v30l512 -454v-32z" />
<glyph unicode="&#xbc;" horiz-adv-x="1638" d="M102 1240v30l248 216h28v-878h-22v842h-16zM310 10l1088 1476h26l-1088 -1476h-26zM922 236v26l454 626h26v-632h162v-20h-162v-226h-22v226h-458zM954 256h426v578h-18l-408 -562v-16z" />
<glyph unicode="&#xbd;" horiz-adv-x="1638" d="M102 1240v30l248 216h28v-878h-22v842h-16zM250 10l1088 1476h24l-1088 -1476h-24zM1038 10v26q280 248 379 380t99 248q0 102 -59 158t-165 56q-134 0 -236 -64v24q108 62 236 62q116 0 180 -63t64 -173q0 -120 -96 -251t-360 -365v-18h466v-20h-508z" />
<glyph unicode="&#xbe;" horiz-adv-x="1638" d="M124 658v20q90 -62 224 -62q276 0 276 240q0 224 -338 224h-38v20h38q148 0 234 57t86 153q0 80 -60 123t-168 43q-140 0 -234 -64v24q104 62 234 62q116 0 182 -51t66 -137q0 -148 -186 -208v-18q206 -54 206 -228q0 -130 -76 -195t-222 -65q-124 0 -224 62zM322 10 l1086 1476h26l-1088 -1476h-24zM922 236v26l454 626h26v-632h162v-20h-162v-226h-22v226h-458zM954 256h426v578h-18l-408 -562v-16z" />
<glyph unicode="&#xbf;" horiz-adv-x="1232" d="M156 -164q0 98 45 176t93 116t138 96q142 90 219 189t77 253h22q0 -80 -25 -155t-75 -132t-95 -94t-113 -81q-66 -40 -100 -67t-79 -73t-66 -102t-21 -126q0 -132 122 -204t338 -72q240 0 442 70v-22q-210 -70 -442 -70t-356 79t-124 219zM728 850v204h22v-204h-22z" />
<glyph unicode="&#xc0;" d="M88 10l544 1476h50l546 -1476h-24l-188 512h-716l-190 -512h-22zM308 542h700l-342 928h-16zM428 1936h26l230 -308h-24z" />
<glyph unicode="&#xc1;" d="M88 10l544 1476h50l546 -1476h-24l-188 512h-716l-190 -512h-22zM308 542h700l-342 928h-16zM630 1628l232 308h26l-230 -308h-28z" />
<glyph unicode="&#xc2;" d="M88 10l544 1476h50l546 -1476h-24l-188 512h-716l-190 -512h-22zM308 542h700l-342 928h-16zM344 1628l286 308h54l288 -308h-28l-280 298h-12l-282 -298h-26z" />
<glyph unicode="&#xc3;" d="M88 10l544 1476h50l546 -1476h-24l-188 512h-716l-190 -512h-22zM308 542h700l-342 928h-16zM330 1668q0 206 122 206q78 0 210 -92q128 -92 200 -92q102 0 102 164h22q0 -186 -124 -186q-80 0 -212 96q-124 90 -198 90q-102 0 -102 -186h-20z" />
<glyph unicode="&#xc4;" d="M88 10l544 1476h50l546 -1476h-24l-188 512h-716l-190 -512h-22zM308 542h700l-342 928h-16zM442 1668v226h22v-226h-22zM852 1668v226h20v-226h-20z" />
<glyph unicode="&#xc5;" d="M88 10l544 1476h50l546 -1476h-24l-188 512h-716l-190 -512h-22zM308 542h700l-342 928h-16zM442 1802q0 90 63 153t153 63t152 -64q62 -62 62 -152t-62 -153t-152 -63t-153 63t-63 153zM464 1802q0 -82 57 -138t137 -56t138 56q56 56 56 138t-57 138t-137 56t-137 -56 t-57 -138z" />
<glyph unicode="&#xc6;" horiz-adv-x="1592" d="M88 10l566 1476h762v-22h-594v-634h552v-22h-552v-778h594v-20h-616v512h-492l-198 -512h-22zM316 542h484v922h-132z" />
<glyph unicode="&#xc7;" horiz-adv-x="1212" d="M104 748q0 358 151 558t405 200q192 0 356 -68v-24q-162 70 -356 70q-252 0 -393 -196t-141 -540q0 -340 148 -539t404 -199q186 0 348 70v-22q-116 -50 -258 -64q84 -106 84 -210q0 -36 -11 -71t-43 -72t-102 -59t-172 -22q-114 0 -214 42v24q90 -46 214 -46 q308 0 308 204q0 108 -88 208q-26 -2 -66 -2q-258 0 -416 200t-158 558z" />
<glyph unicode="&#xc8;" horiz-adv-x="1172" d="M196 10v1476h800v-22h-778v-634h736v-22h-736v-778h778v-20h-800zM438 1936h24l232 -308h-24z" />
<glyph unicode="&#xc9;" horiz-adv-x="1172" d="M196 10v1476h800v-22h-778v-634h736v-22h-736v-778h778v-20h-800zM518 1628l232 308h24l-230 -308h-26z" />
<glyph unicode="&#xca;" horiz-adv-x="1172" d="M196 10v1476h800v-22h-778v-634h736v-22h-736v-778h778v-20h-800zM292 1628l288 308h52l288 -308h-28l-280 298h-12l-280 -298h-28z" />
<glyph unicode="&#xcb;" horiz-adv-x="1172" d="M196 10v1476h800v-22h-778v-634h736v-22h-736v-778h778v-20h-800zM390 1668v226h22v-226h-22zM800 1668v226h22v-226h-22z" />
<glyph unicode="&#xcc;" horiz-adv-x="578" d="M32 1936h26l232 -308h-26zM278 10v1476h22v-1476h-22z" />
<glyph unicode="&#xcd;" horiz-adv-x="578" d="M278 10v1476h22v-1476h-22zM288 1628l232 308h26l-230 -308h-28z" />
<glyph unicode="&#xce;" horiz-adv-x="578" d="M-26 1628l288 308h54l286 -308h-26l-282 298h-12l-280 -298h-28zM278 10v1476h22v-1476h-22z" />
<glyph unicode="&#xcf;" horiz-adv-x="578" d="M74 1668v226h20v-226h-20zM278 10v1476h22v-1476h-22zM484 1668v226h20v-226h-20z" />
<glyph unicode="&#xd0;" horiz-adv-x="1458" d="M94 778v20h256v688h236q378 0 573 -183t195 -535q0 -366 -198 -562t-570 -196h-236v768h-256zM370 30h216q366 0 557 189t191 549q0 696 -748 696h-216v-666h442v-20h-442v-748z" />
<glyph unicode="&#xd1;" horiz-adv-x="1376" d="M196 10v1476h50l892 -1452h20v1452h22v-1476h-50l-892 1452h-20v-1452h-22zM360 1668q0 206 124 206q78 0 208 -92t200 -92q104 0 104 164h20q0 -186 -124 -186q-80 0 -212 96q-124 90 -196 90q-102 0 -102 -186h-22z" />
<glyph unicode="&#xd2;" horiz-adv-x="1418" d="M104 747q0 363 158 561t447 198t447 -198t158 -561t-158 -560t-447 -197t-445 196q-160 198 -160 561zM126 748q0 -356 148 -546q152 -192 435 -192t433 191t150 547t-150 546t-433 190t-433 -190t-150 -546zM478 1936h26l232 -308h-26z" />
<glyph unicode="&#xd3;" horiz-adv-x="1418" d="M104 747q0 363 158 561t447 198t447 -198t158 -561t-158 -560t-447 -197t-445 196q-160 198 -160 561zM126 748q0 -356 148 -546q152 -192 435 -192t433 191t150 547t-150 546t-433 190t-433 -190t-150 -546zM682 1628l232 308h24l-232 -308h-24z" />
<glyph unicode="&#xd4;" horiz-adv-x="1418" d="M104 747q0 363 158 561t447 198t447 -198t158 -561t-158 -560t-447 -197t-445 196q-160 198 -160 561zM126 748q0 -356 148 -546q152 -192 435 -192t433 191t150 547t-150 546t-433 190t-433 -190t-150 -546zM394 1628l288 308h54l286 -308h-26l-282 298h-12l-280 -298 h-28z" />
<glyph unicode="&#xd5;" horiz-adv-x="1418" d="M104 747q0 363 158 561t447 198t447 -198t158 -561t-158 -560t-447 -197t-445 196q-160 198 -160 561zM126 748q0 -356 148 -546q152 -192 435 -192t433 191t150 547t-150 546t-433 190t-433 -190t-150 -546zM380 1668q0 206 124 206q78 0 208 -92t202 -92q102 0 102 164 h20q0 -186 -122 -186q-80 0 -214 96q-122 90 -196 90q-102 0 -102 -186h-22z" />
<glyph unicode="&#xd6;" horiz-adv-x="1418" d="M104 747q0 363 158 561t447 198t447 -198t158 -561t-158 -560t-447 -197t-445 196q-160 198 -160 561zM126 748q0 -356 148 -546q152 -192 435 -192t433 191t150 547t-150 546t-433 190t-433 -190t-150 -546zM494 1668v226h20v-226h-20zM902 1668v226h22v-226h-22z" />
<glyph unicode="&#xd7;" horiz-adv-x="1192" d="M118 132l464 462l-464 462l16 16l462 -464l462 464l16 -16l-464 -462l464 -462l-16 -16l-462 464l-462 -464z" />
<glyph unicode="&#xd8;" horiz-adv-x="1438" d="M114 748q0 362 158 560t446 198q220 0 376 -126l84 132l16 -10l-82 -136q212 -200 212 -618q0 -364 -158 -561t-448 -197q-218 0 -374 124l-84 -130l-16 10l82 134q-212 202 -212 620zM136 748q0 -406 202 -602l748 1218q-152 120 -368 120q-282 0 -432 -190t-150 -546z M352 132q152 -122 366 -122q284 0 434 191t150 547q0 404 -202 602z" />
<glyph unicode="&#xd9;" d="M176 492v994h20v-994q0 -236 118 -359t343 -123t343 123t118 359v994h20v-994q0 -246 -126 -374t-355 -128t-355 128t-126 374zM488 1936h28l230 -308h-26z" />
<glyph unicode="&#xda;" d="M176 492v994h20v-994q0 -236 118 -359t343 -123t343 123t118 359v994h20v-994q0 -246 -126 -374t-355 -128t-355 128t-126 374zM568 1628l232 308h26l-230 -308h-28z" />
<glyph unicode="&#xdb;" d="M176 492v994h20v-994q0 -236 118 -359t343 -123t343 123t118 359v994h20v-994q0 -246 -126 -374t-355 -128t-355 128t-126 374zM344 1628l286 308h54l288 -308h-28l-280 298h-12l-282 -298h-26z" />
<glyph unicode="&#xdc;" d="M176 492v994h20v-994q0 -236 118 -359t343 -123t343 123t118 359v994h20v-994q0 -246 -126 -374t-355 -128t-355 128t-126 374zM442 1668v226h22v-226h-22zM852 1668v226h20v-226h-20z" />
<glyph unicode="&#xdd;" horiz-adv-x="1274" d="M92 1486h24l512 -784h16l512 784h26l-534 -814v-662h-22v662zM548 1628l230 308h28l-232 -308h-26z" />
<glyph unicode="&#xde;" horiz-adv-x="1192" d="M196 10v1476h22v-268h276q314 0 449 -91t135 -297q0 -222 -138 -326t-426 -104h-296v-390h-22zM218 420h296q280 0 411 99t131 311q0 118 -43 195t-170 125t-349 48h-276v-778z" />
<glyph unicode="&#xdf;" horiz-adv-x="1172" d="M186 10v1126q0 228 88 319t312 91q378 0 378 -236q0 -72 -40 -147t-90 -128t-92 -102t-42 -73t60 -84t127 -122t124 -152t57 -174q0 -164 -96 -251t-274 -87q-144 0 -312 46v22q160 -48 312 -48q170 0 259 81t89 237q0 80 -58 171t-129 153t-126 122t-55 86q0 24 41 76 t90 102t92 126t43 146q0 42 -12 75t-47 68t-111 54t-188 19q-214 0 -296 -85t-82 -305v-1126h-22z" />
<glyph unicode="&#xe0;" horiz-adv-x="1048" d="M124 286q0 54 14 101t53 95t101 83t170 58t246 23h154v112q0 162 -72 229t-246 67q-206 0 -368 -70v24q162 68 368 68q186 0 262 -73t76 -245v-748h-20v238h-20q-58 -124 -166 -191t-254 -67q-140 0 -219 79t-79 217zM146 286q0 -128 73 -202t203 -74q190 0 315 119 t125 301v194h-154q-562 0 -562 -338zM314 1526h28l230 -308h-26z" />
<glyph unicode="&#xe1;" horiz-adv-x="1048" d="M124 286q0 54 14 101t53 95t101 83t170 58t246 23h154v112q0 162 -72 229t-246 67q-206 0 -368 -70v24q162 68 368 68q186 0 262 -73t76 -245v-748h-20v238h-20q-58 -124 -166 -191t-254 -67q-140 0 -219 79t-79 217zM146 286q0 -128 73 -202t203 -74q190 0 315 119 t125 301v194h-154q-562 0 -562 -338zM518 1218l232 308h24l-230 -308h-26z" />
<glyph unicode="&#xe2;" horiz-adv-x="1048" d="M124 286q0 54 14 101t53 95t101 83t170 58t246 23h154v112q0 162 -72 229t-246 67q-206 0 -368 -70v24q162 68 368 68q186 0 262 -73t76 -245v-748h-20v238h-20q-58 -124 -166 -191t-254 -67q-140 0 -219 79t-79 217zM146 286q0 -128 73 -202t203 -74q190 0 315 119 t125 301v194h-154q-562 0 -562 -338zM230 1218l288 308h54l286 -308h-26l-282 300h-12l-280 -300h-28z" />
<glyph unicode="&#xe3;" horiz-adv-x="1048" d="M124 286q0 54 14 101t53 95t101 83t170 58t246 23h154v112q0 162 -72 229t-246 67q-206 0 -368 -70v24q162 68 368 68q186 0 262 -73t76 -245v-748h-20v238h-20q-58 -124 -166 -191t-254 -67q-140 0 -219 79t-79 217zM146 286q0 -128 73 -202t203 -74q190 0 315 119 t125 301v194h-154q-562 0 -562 -338zM216 1238q0 206 124 206q78 0 210 -92q128 -92 200 -92q102 0 102 164h20q0 -186 -122 -186q-80 0 -214 96q-122 90 -196 90q-102 0 -102 -186h-22z" />
<glyph unicode="&#xe4;" horiz-adv-x="1048" d="M124 286q0 54 14 101t53 95t101 83t170 58t246 23h154v112q0 162 -72 229t-246 67q-206 0 -368 -70v24q162 68 368 68q186 0 262 -73t76 -245v-748h-20v238h-20q-58 -124 -166 -191t-254 -67q-140 0 -219 79t-79 217zM146 286q0 -128 73 -202t203 -74q190 0 315 119 t125 301v194h-154q-562 0 -562 -338zM330 1260v226h20v-226h-20zM740 1260v226h20v-226h-20z" />
<glyph unicode="&#xe5;" horiz-adv-x="1048" d="M124 286q0 54 14 101t53 95t101 83t170 58t246 23h154v112q0 162 -72 229t-246 67q-206 0 -368 -70v24q162 68 368 68q186 0 262 -73t76 -245v-748h-20v238h-20q-58 -124 -166 -191t-254 -67q-140 0 -219 79t-79 217zM146 286q0 -128 73 -202t203 -74q190 0 315 119 t125 301v194h-154q-562 0 -562 -338zM330 1372q0 90 62 153t152 63t152 -64q64 -62 64 -152t-63 -153t-153 -63t-152 63t-62 153zM350 1372q0 -82 56 -138t138 -56t140 56q56 56 56 138t-57 138t-139 56t-138 -56t-56 -138z" />
<glyph unicode="&#xe6;" horiz-adv-x="1776" d="M124 286q0 54 14 101t53 95t101 83t170 58t246 23h154v112q0 162 -72 229t-246 67q-206 0 -368 -70v24q162 68 368 68q172 0 250 -63t88 -243q114 306 390 306q186 0 288 -138t102 -396v-10h-780q2 -260 111 -391t289 -131q170 0 308 60v-24q-146 -56 -308 -56 q-150 0 -252 84t-152 270q-46 -176 -168 -265t-288 -89q-140 0 -219 79t-79 217zM146 286q0 -128 73 -202t203 -74q190 0 315 119t125 301v102v92h-154q-562 0 -562 -338zM882 554h758q-4 248 -97 374t-270 126t-280 -125t-111 -375z" />
<glyph unicode="&#xe7;" horiz-adv-x="1008" d="M104 532q0 268 118 406t334 138q142 0 276 -48v-24q-126 50 -276 50q-126 0 -216 -46t-134 -128t-62 -165t-18 -183q0 -522 450 -522q146 0 266 50v-24q-92 -34 -192 -44q80 -108 80 -208q0 -36 -12 -70t-43 -72t-101 -60t-172 -22q-116 0 -216 42v24q90 -46 216 -46 q306 0 306 204q0 106 -88 206h-44q-230 0 -351 136t-121 406z" />
<glyph unicode="&#xe8;" horiz-adv-x="1058" d="M104 532q0 130 28 230t70 158t102 93t118 49t122 14q400 0 400 -524v-10h-818q0 -532 450 -532q170 0 306 60v-24q-144 -56 -306 -56q-472 0 -472 542zM126 564h798q-8 490 -380 490q-402 0 -418 -490zM366 1526h28l230 -308h-26z" />
<glyph unicode="&#xe9;" horiz-adv-x="1058" d="M104 532q0 130 28 230t70 158t102 93t118 49t122 14q400 0 400 -524v-10h-818q0 -532 450 -532q170 0 306 60v-24q-144 -56 -306 -56q-472 0 -472 542zM126 564h798q-8 490 -380 490q-402 0 -418 -490zM446 1218l232 308h24l-230 -308h-26z" />
<glyph unicode="&#xea;" horiz-adv-x="1058" d="M104 532q0 130 28 230t70 158t102 93t118 49t122 14q400 0 400 -524v-10h-818q0 -532 450 -532q170 0 306 60v-24q-144 -56 -306 -56q-472 0 -472 542zM126 564h798q-8 490 -380 490q-402 0 -418 -490zM220 1218l288 308h54l286 -308h-26l-282 300h-12l-280 -300h-28z " />
<glyph unicode="&#xeb;" horiz-adv-x="1058" d="M104 532q0 130 28 230t70 158t102 93t118 49t122 14q400 0 400 -524v-10h-818q0 -532 450 -532q170 0 306 60v-24q-144 -56 -306 -56q-472 0 -472 542zM126 564h798q-8 490 -380 490q-402 0 -418 -490zM320 1260v226h20v-226h-20zM728 1260v226h22v-226h-22z" />
<glyph unicode="&#xec;" horiz-adv-x="578" d="M32 1526h26l232 -308h-26zM278 10v1044h22v-1044h-22z" />
<glyph unicode="&#xed;" horiz-adv-x="578" d="M278 10v1044h22v-1044h-22zM288 1218l232 308h26l-230 -308h-28z" />
<glyph unicode="&#xee;" horiz-adv-x="578" d="M-26 1218l288 308h54l286 -308h-26l-282 300h-12l-280 -300h-28zM278 10v1044h22v-1044h-22z" />
<glyph unicode="&#xef;" horiz-adv-x="578" d="M74 1260v226h20v-226h-20zM278 10v1044h22v-1044h-22zM484 1260v226h20v-226h-20z" />
<glyph unicode="&#xf0;" horiz-adv-x="1110" d="M114 532q0 248 120 396t322 148q234 0 360 -208l20 10q-78 290 -274 450l-370 -166l-10 18l360 164q-158 114 -332 138v22q192 -30 352 -150l278 124l8 -16l-266 -122q314 -270 314 -808q0 -256 -117 -399t-323 -143q-186 0 -314 147t-128 395zM136 532q0 -234 123 -378 t297 -144q196 0 307 138t111 384q0 240 -113 381t-306 141t-306 -141t-113 -381z" />
<glyph unicode="&#xf1;" horiz-adv-x="1100" d="M176 10v1044h20v-214h20q60 100 167 168t213 68q180 0 259 -100t79 -342v-624h-20v624q0 246 -77 333t-241 87q-140 0 -270 -111t-130 -227v-706h-20zM216 1238q0 206 124 206q78 0 210 -92q128 -92 200 -92q102 0 102 164h20q0 -186 -122 -186q-80 0 -214 96 q-122 90 -196 90q-102 0 -102 -186h-22z" />
<glyph unicode="&#xf2;" horiz-adv-x="1110" d="M104 532q0 260 118 402t333 142t333 -142t118 -402t-120 -402q-116 -140 -331 -140t-333 141t-118 401zM126 532q0 -252 110 -384q112 -138 319 -138t318 135t111 387t-111 387t-318 135t-318 -135t-111 -387zM326 1526h26l230 -308h-26z" />
<glyph unicode="&#xf3;" horiz-adv-x="1110" d="M104 532q0 260 118 402t333 142t333 -142t118 -402t-120 -402q-116 -140 -331 -140t-333 141t-118 401zM126 532q0 -252 110 -384q112 -138 319 -138t318 135t111 387t-111 387t-318 135t-318 -135t-111 -387zM528 1218l232 308h24l-230 -308h-26z" />
<glyph unicode="&#xf4;" horiz-adv-x="1110" d="M104 532q0 260 118 402t333 142t333 -142t118 -402t-120 -402q-116 -140 -331 -140t-333 141t-118 401zM126 532q0 -252 110 -384q112 -138 319 -138t318 135t111 387t-111 387t-318 135t-318 -135t-111 -387zM242 1218l286 308h54l286 -308h-26l-280 300h-14l-280 -300 h-26z" />
<glyph unicode="&#xf5;" horiz-adv-x="1110" d="M104 532q0 260 118 402t333 142t333 -142t118 -402t-120 -402q-116 -140 -331 -140t-333 141t-118 401zM126 532q0 -252 110 -384q112 -138 319 -138t318 135t111 387t-111 387t-318 135t-318 -135t-111 -387zM228 1238q0 206 122 206q78 0 210 -92q128 -92 200 -92 q102 0 102 164h20q0 -186 -122 -186q-80 0 -214 96q-122 90 -196 90q-102 0 -102 -186h-20z" />
<glyph unicode="&#xf6;" horiz-adv-x="1110" d="M104 532q0 260 118 402t333 142t333 -142t118 -402t-120 -402q-116 -140 -331 -140t-333 141t-118 401zM126 532q0 -252 110 -384q112 -138 319 -138t318 135t111 387t-111 387t-318 135t-318 -135t-111 -387zM340 1260v226h20v-226h-20zM750 1260v226h20v-226h-20z" />
<glyph unicode="&#xf7;" horiz-adv-x="1500" d="M186 584v20h1128v-20h-1128zM740 10v206h20v-206h-20zM740 972v206h20v-206h-20z" />
<glyph unicode="&#xf8;" horiz-adv-x="1130" d="M114 532q0 260 118 402t334 142q174 0 296 -102l78 110l16 -12l-80 -114q140 -150 140 -426q0 -260 -118 -401t-332 -141q-174 0 -298 102l-78 -110l-16 12l80 112q-140 152 -140 426zM136 532q0 -264 128 -406l586 830q-112 98 -284 98q-208 0 -319 -135t-111 -387z M280 108q114 -98 286 -98q206 0 318 135t112 387q0 264 -132 408z" />
<glyph unicode="&#xf9;" horiz-adv-x="1090" d="M166 390v664h20v-664q0 -218 78 -299t230 -81q138 0 268 112t130 226v706h22v-1044h-22v216h-20q-58 -102 -165 -169t-213 -67q-170 0 -249 92t-79 308zM386 1526h28l230 -308h-26z" />
<glyph unicode="&#xfa;" horiz-adv-x="1090" d="M166 390v664h20v-664q0 -218 78 -299t230 -81q138 0 268 112t130 226v706h22v-1044h-22v216h-20q-58 -102 -165 -169t-213 -67q-170 0 -249 92t-79 308zM466 1218l232 308h26l-232 -308h-26z" />
<glyph unicode="&#xfb;" horiz-adv-x="1090" d="M166 390v664h20v-664q0 -218 78 -299t230 -81q138 0 268 112t130 226v706h22v-1044h-22v216h-20q-58 -102 -165 -169t-213 -67q-170 0 -249 92t-79 308zM242 1218l286 308h54l286 -308h-26l-280 300h-14l-280 -300h-26z" />
<glyph unicode="&#xfc;" horiz-adv-x="1090" d="M166 390v664h20v-664q0 -218 78 -299t230 -81q138 0 268 112t130 226v706h22v-1044h-22v216h-20q-58 -102 -165 -169t-213 -67q-170 0 -249 92t-79 308zM340 1260v226h20v-226h-20zM750 1260v226h20v-226h-20z" />
<glyph unicode="&#xfd;" horiz-adv-x="1140" d="M104 -440q156 0 267 96t213 344l-454 1054h24l434 -1010h16l414 1010h24l-434 -1048q-104 -264 -223 -366t-281 -102v22zM476 1218l232 308h26l-230 -308h-28z" />
<glyph unicode="&#xfe;" horiz-adv-x="1130" d="M176 -440v1966h20v-662h20q56 96 158 154t222 58q202 0 311 -141t109 -403q0 -260 -110 -401t-310 -141q-120 0 -222 57t-158 153h-20v-640h-20zM196 338q0 -132 120 -230t280 -98q192 0 296 135t104 387q0 256 -103 389t-297 133q-160 0 -280 -98t-120 -228v-390z" />
<glyph unicode="&#xff;" horiz-adv-x="1140" d="M104 -440q156 0 267 96t213 344l-454 1054h24l434 -1010h16l414 1010h24l-434 -1048q-104 -264 -223 -366t-281 -102v22zM350 1260v226h20v-226h-20zM760 1260v226h20v-226h-20z" />
<glyph unicode="&#x152;" horiz-adv-x="1652" d="M104 748q0 336 169 547t427 211q86 0 162 -20h614v-22h-594v-634h554v-22h-554v-778h594v-20h-614q-76 -20 -162 -20q-258 0 -427 211t-169 547zM126 748q0 -326 160 -532t414 -206q80 0 162 20v1434q-82 20 -162 20q-254 0 -414 -205t-160 -531z" />
<glyph unicode="&#x153;" horiz-adv-x="1868" d="M104 532q0 252 118 398t322 146q150 0 256 -94t154 -286q50 198 152 289t258 91q186 0 288 -138t102 -396v-10h-790q4 -246 117 -384t303 -138q170 0 308 60v-24q-146 -56 -308 -56t-271 93t-159 291q-50 -196 -154 -290t-256 -94q-204 0 -322 145t-118 397zM126 532 q0 -246 111 -384t307 -138q184 0 292 141t108 381t-108 381t-292 141q-196 0 -307 -138t-111 -384zM964 554h768q-4 248 -97 374t-271 126q-184 0 -289 -129t-111 -371z" />
<glyph unicode="&#x178;" horiz-adv-x="1274" d="M92 1486h24l512 -784h16l512 784h26l-534 -814v-662h-22v662zM422 1668v226h20v-226h-20zM832 1668v226h20v-226h-20z" />
<glyph unicode="&#x2c6;" horiz-adv-x="864" d="M118 1218l288 308h52l288 -308h-28l-280 300h-12l-280 -300h-28z" />
<glyph unicode="&#x2dc;" horiz-adv-x="946" d="M146 1238q0 206 122 206q78 0 210 -92q128 -92 200 -92q102 0 102 164h22q0 -186 -124 -186q-80 0 -214 96q-122 90 -196 90q-102 0 -102 -186h-20z" />
<glyph unicode="&#x2000;" horiz-adv-x="1009" vert-adv-y="0" />
<glyph unicode="&#x2001;" horiz-adv-x="2018" vert-adv-y="0" />
<glyph unicode="&#x2002;" horiz-adv-x="1009" vert-adv-y="0" />
<glyph unicode="&#x2003;" horiz-adv-x="2018" vert-adv-y="0" />
<glyph unicode="&#x2004;" horiz-adv-x="672" vert-adv-y="0" />
<glyph unicode="&#x2005;" horiz-adv-x="504" vert-adv-y="0" />
<glyph unicode="&#x2006;" horiz-adv-x="336" vert-adv-y="0" />
<glyph unicode="&#x2007;" horiz-adv-x="336" vert-adv-y="0" />
<glyph unicode="&#x2008;" horiz-adv-x="252" vert-adv-y="0" />
<glyph unicode="&#x2009;" horiz-adv-x="403" vert-adv-y="0" />
<glyph unicode="&#x200a;" horiz-adv-x="112" vert-adv-y="0" />
<glyph unicode="&#x2010;" horiz-adv-x="926" d="M186 562v22h554v-22h-554z" />
<glyph unicode="&#x2011;" horiz-adv-x="926" d="M186 562v22h554v-22h-554z" />
<glyph unicode="&#x2012;" horiz-adv-x="926" d="M186 562v22h554v-22h-554z" />
<glyph unicode="&#x2013;" horiz-adv-x="966" d="M6 584v20h954v-20h-954z" />
<glyph unicode="&#x2014;" horiz-adv-x="1938" d="M6 584v20h1926v-20h-1926z" />
<glyph unicode="&#x2018;" horiz-adv-x="466" d="M118 1136l156 430h24l-156 -430h-24z" />
<glyph unicode="&#x2019;" horiz-adv-x="466" d="M170 1136l156 430h22l-156 -430h-22z" />
<glyph unicode="&#x201a;" horiz-adv-x="500" d="M150 -216l158 432h22l-158 -432h-22z" />
<glyph unicode="&#x201c;" horiz-adv-x="772" d="M108 1136l156 430h24l-156 -430h-24zM434 1136l156 430h22l-156 -430h-22z" />
<glyph unicode="&#x201d;" horiz-adv-x="772" d="M160 1136l156 430h22l-156 -430h-22zM486 1136l156 430h22l-156 -430h-22z" />
<glyph unicode="&#x201e;" horiz-adv-x="802" d="M138 -216l158 432h22l-158 -432h-22zM464 -216l158 432h22l-158 -432h-22z" />
<glyph unicode="&#x2022;" horiz-adv-x="824" d="M278 747q0 55 39 94t95 39t95 -39t39 -94t-40 -91q-38 -42 -94 -42t-95 39t-39 94z" />
<glyph unicode="&#x2026;" horiz-adv-x="2048" d="M332 624v226h20v-226h-20zM1014 624v226h20v-226h-20zM1696 624v226h20v-226h-20z" />
<glyph unicode="&#x202f;" horiz-adv-x="403" vert-adv-y="0" />
<glyph unicode="&#x2039;" horiz-adv-x="712" d="M158 594l320 400h28l-320 -400l320 -400h-28z" />
<glyph unicode="&#x203a;" horiz-adv-x="712" d="M206 194l320 400l-320 400h30l320 -400l-320 -400h-30z" />
<glyph unicode="&#x205f;" horiz-adv-x="504" vert-adv-y="0" />
<glyph unicode="&#x2122;" horiz-adv-x="1756" d="M146 1464v22h634v-22h-306v-706h-22v706h-306zM884 758l94 728h32l220 -714l222 714h30l96 -728h-22l-86 664h-18l-204 -664h-34l-204 664h-18l-86 -664h-22z" />
<glyph unicode="&#x25fc;" horiz-adv-x="1050" vert-adv-y="2100" d="M0 0v1050h1050v-1050h-1050z" />
<glyph unicode="&#xfb01;" horiz-adv-x="1172" d="M134 994v20h226v194q0 162 63 230t213 68q90 0 154 -28v-22q-64 28 -154 28q-140 0 -197 -61t-57 -215v-194h604v-1004h-22v984h-582v-984h-22v984h-226zM964 1320v206h22v-206h-22z" />
<glyph unicode="&#xfb02;" horiz-adv-x="1172" d="M134 994v20h226v194q0 156 66 227t210 71q170 0 350 -40v-1456h-22v1440q-178 34 -328 34q-134 0 -194 -65t-60 -211v-194h378v-20h-378v-984h-22v984h-226z" />
</font>
</defs>
</svg>
